<svg width="190" height="82" viewBox="0 0 190 82" fill="none" xmlns="http://www.w3.org/2000/svg">
<g clip-path="url(#clip0_8527_686)">
<path d="M150.016 10.0605L143.561 16.5158L142.5 15.4553L148.955 9H143.266V7.5H151.516V15.75H150.016V10.0605Z" fill="#20B03F"/>
<path d="M161.676 14.74H162.552V12.316H164.796V11.476H162.552V9.052H161.676V11.476H159.432V12.316H161.676V14.74ZM167.599 16H168.643V7.42H167.671L165.679 8.86V9.832L167.599 8.452V16ZM171.593 16.06C172.013 16.06 172.361 15.724 172.361 15.292C172.361 14.86 172.013 14.524 171.593 14.524C171.173 14.524 170.825 14.86 170.825 15.292C170.825 15.724 171.173 16.06 171.593 16.06ZM173.576 16H179.324V15.148H175.184L177.548 12.844C178.604 11.812 179.276 10.78 179.276 9.724C179.276 8.248 178.268 7.312 176.684 7.312C175.052 7.312 174.032 8.38 173.9 10.06H174.872C175.04 8.716 175.688 8.152 176.684 8.152C177.656 8.152 178.22 8.728 178.22 9.688C178.22 10.564 177.764 11.344 176.984 12.172L173.576 15.76V16ZM182.428 10.624C181.792 10.624 181.372 10.204 181.372 9.388C181.372 8.572 181.792 8.128 182.428 8.128C183.076 8.128 183.484 8.608 183.484 9.376C183.484 10.18 183.076 10.624 182.428 10.624ZM182.428 11.404C183.46 11.404 184.396 10.564 184.396 9.376C184.396 8.212 183.496 7.348 182.428 7.348C181.384 7.348 180.46 8.212 180.46 9.4C180.46 10.564 181.408 11.404 182.428 11.404ZM181.672 16H182.584L187.828 7.42H186.917L181.672 16ZM187.085 15.316C186.449 15.316 186.029 14.896 186.029 14.08C186.029 13.264 186.449 12.82 187.085 12.82C187.733 12.82 188.141 13.3 188.141 14.068C188.141 14.872 187.733 15.316 187.085 15.316ZM187.085 16.096C188.117 16.096 189.053 15.256 189.053 14.068C189.053 12.904 188.152 12.04 187.085 12.04C186.04 12.04 185.117 12.904 185.117 14.092C185.117 15.256 186.065 16.096 187.085 16.096Z" fill="#20B03F"/>
<path opacity="0.1" d="M26.5 40.5308C18.1 42.1431 6.33333 69.082 1.5 82.35V102H190V25.9193C175.5 35.4924 164.5 50.1039 146.5 72.777C135.59 86.5192 126.297 66.1032 122.5 50.1039C111.5 3.75003 93.5208 31.3988 90.5 40.5308C85.5 55.6462 78.5 50.1039 66.5 50.1039C54.5 50.1039 56 57.1577 52 64.7154C48 72.2731 37 38.5154 26.5 40.5308Z" fill="#20B03F"/>
<path d="M1.5 82.35C6.33333 69.082 18.1 42.1431 26.5 40.5308C37 38.5154 48 72.2731 52 64.7154C56 57.1577 54.5 50.1039 66.5 50.1039C78.5 50.1039 85.5 55.6462 90.5 40.5308C93.5208 31.3988 111.5 3.75003 122.5 50.1039C126.297 66.1032 135.59 86.5192 146.5 72.777C164.5 50.1039 175.5 35.4924 190 25.9193" stroke="#20B03F"/>
</g>
<defs>
<clipPath id="clip0_8527_686">
<rect width="190" height="82" fill="white"/>
</clipPath>
</defs>
</svg>
